<?xml version="1.0" encoding="UTF-8"?>
<svg id="Capa_2" data-name="Capa 2" xmlns="http://www.w3.org/2000/svg" viewBox="0 0 1025.05 240.07">
  <defs>
    <style>
      .cls-1 {
        fill: #0078ff;
      }
    </style>
  </defs>
  <g id="Capa_1-2" data-name="Capa 1">
    <g>
      <path class="cls-1" d="M41.56,85.44v4.62c0,5.1,4.14,9.24,9.24,9.24h0c5.1,0,9.24,4.14,9.24,9.24v65.45c0,2.45.97,4.8,2.71,6.53l56.86,56.86c3.93,3.93,10.41,3.52,13.82-.86l40.12-51.59c1.26-1.62,1.95-3.62,1.95-5.67v-21.12c0-2.2.79-4.34,2.22-6.01l64.83-75.63c1.43-1.67,2.22-3.81,2.22-6.01V9.24C244.77,4.14,240.63,0,235.53,0H9.24C4.14,0,0,4.14,0,9.24v48.49c0,5.1,4.14,9.24,9.24,9.24h80.82c5.1,0,9.23,4.13,9.24,9.23l.03,84.3c0,2.33.88,4.57,2.46,6.28l25.22,27.19V64.36c0-2.74-1.22-5.34-3.32-7.1l-7.96-6.63c-1.66-1.38-3.75-2.14-5.91-2.14H30.02c-5.1,0-9.24-4.14-9.24-9.24v-4.62c0-5.1,4.14-9.24,9.24-9.24h184.73c5.1,0,9.24,4.14,9.24,9.24v28.63c0,2.38-.92,4.66-2.56,6.38l-45.94,48.12v-41.56c0-5.1,4.14-9.24,9.24-9.24h.79c2.45,0,4.8-.97,6.53-2.71l10.21-10.21c2.05-2.05.6-5.56-2.3-5.56h-34.5c-2.45,0-4.8.97-6.53,2.71l-6.13,6.13c-1.73,1.73-2.71,4.08-2.71,6.53v117.73c0,2.04-.67,4.02-1.92,5.63l-21.18,27.53-43.79-48.17c-1.54-1.7-2.4-3.9-2.4-6.19,0-15.5,0-47.28,0-65.73,0-5.09-4.13-9.22-9.22-9.22h-30.03Z"/>
      <g>
        <path class="cls-1" d="M256.74,239.54c-8.85,0-16.79-1.44-23.84-4.32-7.05-2.88-13.04-6.89-17.96-12.03-4.93-5.14-8.7-11.15-11.33-18.02-2.63-6.87-3.94-14.26-3.94-22.17v-4.31c0-8.99,1.29-17.17,3.88-24.54,2.59-7.37,6.26-13.72,11-19.04,4.75-5.32,10.43-9.42,17.04-12.3,6.62-2.88,13.92-4.31,21.9-4.31s15.57,1.39,21.9,4.15c6.33,2.77,11.61,6.67,15.86,11.7,4.24,5.04,7.44,11.06,9.6,18.07,2.16,7.01,3.24,14.76,3.24,23.25v8.5c0,1.92-1.56,3.48-3.48,3.48h-84.53c-1.92,0-3.48-1.56-3.48-3.48v-12.68c0-1.92,1.56-3.48,3.48-3.48h59.95v-2.16c-.14-4.53-1.01-8.68-2.59-12.46-1.58-3.78-4.03-6.8-7.34-9.06-3.31-2.27-7.59-3.4-12.84-3.4-4.24,0-7.93.92-11.06,2.75-3.13,1.83-5.72,4.42-7.77,7.77-2.05,3.34-3.58,7.32-4.58,11.92-1.01,4.6-1.51,9.71-1.51,15.32v4.31c0,4.89.66,9.42,2,13.59,1.33,4.17,3.31,7.79,5.93,10.84,2.62,3.06,5.79,5.43,9.49,7.12,3.7,1.69,7.93,2.54,12.68,2.54,5.97,0,11.38-1.17,16.24-3.51,3.82-1.84,7.25-4.38,10.29-7.62,1.36-1.45,3.65-1.48,5.03-.05l9.66,10.02c1.22,1.27,1.31,3.24.21,4.61-2.18,2.71-4.86,5.33-8.03,7.87-4.14,3.31-9.12,5.99-14.94,8.04-5.83,2.05-12.55,3.07-20.17,3.07Z"/>
        <path class="cls-1" d="M371.09,217.11c4.03,0,7.62-.79,10.79-2.37,3.16-1.58,5.7-3.81,7.61-6.69,1.39-2.1,2.31-4.45,2.77-7.05.3-1.7,1.71-2.98,3.44-2.98h20.02c2.06,0,3.7,1.78,3.47,3.83-.69,6.39-2.84,12.19-6.45,17.42-4.31,6.26-10.05,11.2-17.21,14.83-7.16,3.63-15.16,5.45-24,5.45s-16.83-1.51-23.52-4.53c-6.69-3.02-12.24-7.23-16.67-12.62-4.42-5.39-7.73-11.65-9.92-18.77-2.19-7.12-3.29-14.74-3.29-22.87v-3.45c0-8.13,1.1-15.75,3.29-22.87,2.19-7.12,5.5-13.38,9.92-18.77,4.42-5.39,9.98-9.6,16.67-12.62,6.69-3.02,14.49-4.53,23.41-4.53,9.42,0,17.71,1.83,24.87,5.5,7.15,3.67,12.76,8.85,16.83,15.53,3.49,5.74,5.53,12.36,6.13,19.85.16,2.03-1.44,3.78-3.48,3.78h-20.03c-1.74,0-3.2-1.29-3.43-3.02-.4-2.98-1.25-5.71-2.55-8.2-1.73-3.31-4.17-5.97-7.34-7.98-3.17-2.01-7.01-3.02-11.54-3.02-4.82,0-8.83,1.01-12.03,3.02-3.2,2.01-5.68,4.76-7.44,8.25-1.76,3.49-2.99,7.37-3.67,11.65-.68,4.28-1.02,8.76-1.02,13.43v3.45c0,4.75.34,9.28,1.02,13.59.68,4.32,1.91,8.18,3.67,11.6,1.76,3.42,4.24,6.13,7.44,8.15,3.2,2.01,7.28,3.02,12.24,3.02Z"/>
        <path class="cls-1" d="M466.35,145.7v88.21c0,1.92-1.56,3.48-3.48,3.48h-21.53c-1.92,0-3.48-1.56-3.48-3.48v-109.77c0-1.92,1.56-3.48,3.48-3.48h20.03c1.83,0,3.34,1.41,3.47,3.24l1.49,21.56c0,.08,0,.16,0,.24ZM458.46,174.82h-1.47c-2,0-3.57-1.69-3.48-3.68.33-7.04,1.45-13.51,3.35-19.4,2.23-6.9,5.38-12.84,9.44-17.8,4.06-4.96,8.9-8.77,14.51-11.44,5.61-2.66,11.87-3.99,18.77-3.99,5.61,0,10.68.79,15.21,2.37,4.53,1.58,8.43,4.1,11.7,7.55,3.27,3.45,5.79,7.97,7.55,13.54,1.76,5.57,2.64,12.42,2.64,20.55v71.39c0,1.92-1.56,3.48-3.48,3.48h-21.74c-1.92,0-3.48-1.56-3.48-3.48v-71.61c0-5.32-.77-9.53-2.32-12.62-1.55-3.09-3.78-5.29-6.69-6.58-2.91-1.29-6.49-1.94-10.73-1.94s-8.22.88-11.49,2.64c-3.27,1.76-6.01,4.19-8.2,7.28-2.19,3.09-3.87,6.65-5.02,10.68-.88,3.09-1.43,6.37-1.63,9.84-.11,1.81-1.64,3.22-3.46,3.22Z"/>
        <path class="cls-1" d="M556.75,180.21v-2.27c0-8.56,1.22-16.45,3.67-23.68,2.44-7.23,6.01-13.5,10.68-18.82,4.67-5.32,10.39-9.47,17.15-12.46,6.76-2.98,14.46-4.48,23.09-4.48s16.56,1.49,23.36,4.48c6.8,2.99,12.53,7.14,17.2,12.46,4.67,5.32,8.23,11.6,10.68,18.82,2.44,7.23,3.67,15.12,3.67,23.68v2.27c0,8.49-1.22,16.34-3.67,23.57-2.45,7.23-6.01,13.52-10.68,18.88-4.67,5.36-10.39,9.51-17.15,12.46-6.76,2.95-14.49,4.42-23.19,4.42s-16.36-1.47-23.19-4.42c-6.83-2.95-12.59-7.1-17.26-12.46-4.68-5.36-8.24-11.65-10.68-18.88-2.44-7.23-3.67-15.08-3.67-23.57ZM585.23,177.95v2.27c0,5.11.5,9.89,1.51,14.35,1.01,4.46,2.55,8.38,4.64,11.76,2.08,3.38,4.8,6.02,8.14,7.93,3.34,1.91,7.35,2.86,12.03,2.86s8.56-.95,11.87-2.86c3.31-1.9,6.02-4.55,8.14-7.93,2.12-3.38,3.68-7.3,4.69-11.76,1.01-4.46,1.51-9.24,1.51-14.35v-2.27c0-5.03-.5-9.76-1.51-14.19-1.01-4.42-2.57-8.34-4.69-11.76-2.12-3.41-4.85-6.11-8.2-8.09-3.34-1.98-7.35-2.97-12.03-2.97s-8.56.99-11.87,2.97c-3.31,1.98-6.01,4.68-8.09,8.09-2.09,3.42-3.63,7.34-4.64,11.76-1.01,4.42-1.51,9.15-1.51,14.19Z"/>
        <path class="cls-1" d="M704.84,123.18l26.67,92.46c.08.26.12.53.13.81l.79,17.31c.09,1.98-1.49,3.63-3.47,3.63h-12.11c-1.48,0-2.81-.94-3.29-2.35l-37.74-109.77c-.78-2.26.9-4.61,3.29-4.61h22.39c1.55,0,2.91,1.02,3.34,2.51ZM724.07,215.44l26.36-92.25c.43-1.49,1.79-2.52,3.34-2.52h22.28c2.39,0,4.06,2.35,3.29,4.6l-37.64,109.77c-.48,1.41-1.8,2.35-3.29,2.35h-11.97c-2,0-3.58-1.68-3.47-3.67l.96-17.52c.01-.26.06-.52.13-.76Z"/>
        <path class="cls-1" d="M795.59,90.13c0-4.24,1.46-7.77,4.37-10.57,2.91-2.8,6.85-4.21,11.81-4.21s8.9,1.4,11.81,4.21c2.91,2.8,4.37,6.33,4.37,10.57s-1.46,7.66-4.37,10.46c-2.91,2.81-6.85,4.21-11.81,4.21s-8.9-1.4-11.81-4.21c-2.91-2.8-4.37-6.29-4.37-10.46ZM826.12,124.14v109.77c0,1.92-1.56,3.48-3.48,3.48h-21.63c-1.92,0-3.48-1.56-3.48-3.48v-109.77c0-1.92,1.56-3.48,3.48-3.48h21.63c1.92,0,3.48,1.56,3.48,3.48Z"/>
        <path class="cls-1" d="M908.54,124.14v13.54c0,1.92-1.56,3.48-3.48,3.48h-59.93c-1.92,0-3.48-1.56-3.48-3.48v-13.54c0-1.92,1.56-3.48,3.48-3.48h59.93c1.92,0,3.48,1.56,3.48,3.48ZM863.04,91.97h21.63c1.92,0,3.48,1.56,3.48,3.48v108.28c0,3.45.47,6.11,1.4,7.98.93,1.87,2.34,3.13,4.21,3.78,1.87.65,4.1.97,6.69.97,1.87,0,3.59-.11,5.18-.32.02,0,.03,0,.05,0,2.09-.29,3.95,1.32,3.96,3.42l.07,14.68c0,1.59-1.05,2.98-2.58,3.39-1.68.45-3.5.84-5.44,1.17-2.99.5-6.35.76-10.09.76-6.4,0-12.01-1.1-16.83-3.29-4.82-2.19-8.56-5.75-11.22-10.68-2.66-4.93-3.99-11.45-3.99-19.58v-110.55c0-1.92,1.56-3.48,3.48-3.48Z"/>
        <path class="cls-1" d="M995.85,169.73l.13,9.98c.02,1.94-1.54,3.52-3.48,3.52h-14.49c-4.46,0-8.38.45-11.76,1.35-3.38.9-6.15,2.2-8.31,3.88-2.16,1.69-3.78,3.7-4.85,6.04-1.08,2.34-1.62,4.98-1.62,7.93s.66,5.47,2,7.77c1.33,2.3,3.27,4.12,5.83,5.45,2.55,1.33,5.56,2,9.01,2,5.03,0,9.42-1.02,13.16-3.07,3.74-2.05,6.65-4.55,8.74-7.5.54-.76,1.02-1.52,1.43-2.26,1.24-2.26,4.46-2.33,5.89-.19l3.24,4.86c.62.93.78,2.1.37,3.14-.97,2.46-2.28,5.03-3.92,7.72-2.01,3.31-4.6,6.4-7.77,9.28-3.17,2.88-6.98,5.25-11.43,7.12-4.46,1.87-9.64,2.81-15.53,2.81-7.55,0-14.31-1.51-20.28-4.53-5.97-3.02-10.68-7.16-14.13-12.41-3.45-5.25-5.18-11.22-5.18-17.91,0-6.18,1.15-11.65,3.45-16.4,2.3-4.75,5.72-8.75,10.25-12.03,4.53-3.27,10.16-5.75,16.88-7.44,6.72-1.69,14.44-2.54,23.14-2.54h15.77c1.9,0,3.45,1.53,3.48,3.43ZM991.82,212.58v-53.83c0-3.95-.68-7.37-2.05-10.25-1.37-2.88-3.45-5.11-6.26-6.69-2.8-1.58-6.36-2.37-10.68-2.37-3.81,0-7.14.65-9.98,1.94-2.84,1.3-5.02,3.11-6.53,5.45-1.01,1.56-1.68,3.27-2.01,5.13-.3,1.65-1.64,2.91-3.32,2.91h-21.81c-2.06,0-3.74-1.79-3.47-3.84.45-3.43,1.52-6.73,3.2-9.91,2.3-4.35,5.59-8.23,9.87-11.65,4.28-3.41,9.42-6.1,15.43-8.04,6-1.94,12.75-2.91,20.23-2.91,8.85,0,16.74,1.49,23.68,4.48,6.94,2.99,12.41,7.46,16.4,13.43,3.99,5.97,5.99,13.48,5.99,22.55v50.92c0,5.83.38,10.81,1.13,14.94.75,4.14,1.89,7.71,3.4,10.73v1.83h-26.68c-1.47,0-2.78-.91-3.28-2.28-.92-2.53-1.65-5.53-2.19-8.99-.72-4.57-1.08-9.08-1.08-13.54Z"/>
      </g>
    </g>
  </g>
</svg>