<?xml version="1.0" encoding="UTF-8"?><svg id="uuid-b24bef87-1e14-410e-aa8b-f803ca061a07" xmlns="http://www.w3.org/2000/svg" viewBox="0 0 283.46 311.81"><path d="M57.03,185.72l83.03,125.2c.79,1.2,2.54,1.2,3.34,0l54.69-82.46c.22-.33.34-.72.34-1.12v-41.3c0-.53.21-1.05.59-1.42,27.96-28.1,55.91-56.2,83.87-84.3.38-.38.59-.89.59-1.42V2.01c0-1.11-.9-2.01-2-2.01H2C.9,0,0,.9,0,2.01v48.44c0,.53.21,1.05.59,1.42l32.84,33.01c.38.38.89.59,1.42.59h76.54c1.11,0,2,.9,2,2.01v97.1c0,.4.12.79.34,1.12l24.34,36.7c1.1,1.66,3.67.88,3.67-1.12V59c0-1.11-.9-2.01-2-2.01H37.68c-.53,0-1.04-.21-1.42-.59l-7.33-7.37c-.38-.38-.59-.89-.59-1.42v-17.1c0-1.11.9-2.01,2-2.01h222.76c1.11,0,2,.9,2,2.01v54.97s0,0,0,0c-17.76,17.85-35.51,35.7-53.27,53.55-1.26,1.27-3.42.37-3.42-1.42v-50.11c0-1.11.9-2.01,2-2.01h14.17c.53,0,1.04-.21,1.42-.59l10.16-10.22c.38-.38.59-.89.59-1.42v-22.79c0-1.11-.9-2.01-2-2.01h0c-.53,0-1.04.21-1.42.59l-7.33,7.37c-.38.38-.89.59-1.42.59h-42.52c-1.11,0-2,.89-2,2.01,0,15.4,0,115.65,0,168.35,0,.4-.12.78-.34,1.11-8.78,13.24-17.56,26.48-26.34,39.72-.79,1.2-2.54,1.2-3.34,0l-54.69-82.46c-.22-.33-.34-.72-.34-1.12,0-22.87,0-45.74,0-68.61,0-1.11-.9-2.01-2-2.01h-48.19c-.53,0-1.04-.21-1.41-.59-3.25-3.26-19.33-19.43-30.02-30.17-1.26-1.27-3.42-.37-3.42,1.43v22.79c0,.53.21,1.05.59,1.42l32.84,33.01c.38.38.89.59,1.42.59h19.84c1.11,0,2,.9,2,2.01v40.12c0,.4.12.79.34,1.12Z" fill="#0078ff"/></svg>