<?xml version="1.0" encoding="UTF-8"?>
<svg id="Capa_1" data-name="Capa 1" xmlns="http://www.w3.org/2000/svg" viewBox="0 0 329.25 322.93">
  <defs>
    <style>
      .cls-1 {
        fill: #0078ff;
      }
    </style>
  </defs>
  <g id="Capa_1-2" data-name="Capa 1-2">
    <path class="cls-1" d="M55.91,114.92v6.21c0,6.86,5.56,12.42,12.42,12.42h0c6.86,0,12.42,5.56,12.42,12.42v88.04c0,3.3,1.31,6.46,3.64,8.79l76.49,76.49c5.28,5.28,14.01,4.74,18.59-1.16l53.97-69.39c1.7-2.18,2.62-4.87,2.62-7.63v-28.42c0-2.97,1.06-5.83,2.99-8.09l87.21-101.74c1.93-2.25,2.99-5.12,2.99-8.09V12.42C329.25,5.56,323.69,0,316.83,0H12.42C5.56,0,0,5.55,0,12.41v65.23c0,6.86,5.56,12.42,12.42,12.42h108.72c6.86,0,12.42,5.56,12.42,12.42l.04,113.41c0,3.13,1.19,6.15,3.32,8.45l33.92,36.57V86.57c0-3.69-1.64-7.18-4.47-9.55l-10.71-8.93c-2.23-1.86-5.05-2.88-7.95-2.88H40.38c-6.86,0-12.42-5.56-12.42-12.43v-6.21c0-6.86,5.56-12.42,12.42-12.42h248.5c6.86,0,12.42,5.56,12.42,12.42v38.51c0,3.2-1.23,6.27-3.44,8.58l-61.79,64.74v-55.91c0-6.86,5.56-12.42,12.43-12.42h1.07c3.3,0,6.46-1.31,8.79-3.64l13.74-13.74c2.76-2.76.8-7.48-3.1-7.48h-46.41c-3.3,0-6.46,1.31-8.79,3.64l-8.25,8.25c-2.33,2.33-3.64,5.49-3.64,8.79v158.37c0,2.74-.91,5.4-2.58,7.58l-28.49,37.03-58.9-64.79c-2.07-2.28-3.22-5.25-3.22-8.33v-88.43c0-6.85-5.56-12.4-12.41-12.4,0,0-40.4,0-40.4,0Z"/>
  </g>
</svg>